<mxfile host="65bd71144e">
    <diagram id="ExdccTZqctQwAvQB16s_" name="Page-1">
        <mxGraphModel dx="2843" dy="2012" grid="0" gridSize="10" guides="1" tooltips="1" connect="1" arrows="1" fold="1" page="0" pageScale="1" pageWidth="827" pageHeight="1169" background="none" math="0" shadow="0">
            <root>
                <mxCell id="0"/>
                <mxCell id="1" parent="0"/>
                <mxCell id="103" value="Node A" style="rounded=0;whiteSpace=wrap;html=1;fontSize=14;fontStyle=1" parent="1" vertex="1">
                    <mxGeometry x="40" y="-280" width="160" height="41" as="geometry"/>
                </mxCell>
                <mxCell id="104" value="Node B" style="rounded=0;whiteSpace=wrap;html=1;fontSize=14;fontStyle=1" parent="1" vertex="1">
                    <mxGeometry x="395" y="-278" width="160" height="39" as="geometry"/>
                </mxCell>
                <mxCell id="106" value="" style="endArrow=none;dashed=1;html=1;fontSize=12;entryX=0.5;entryY=1;entryDx=0;entryDy=0;startArrow=none;" parent="1" source="169" target="103" edge="1">
                    <mxGeometry width="50" height="50" relative="1" as="geometry">
                        <mxPoint x="120" y="1850" as="sourcePoint"/>
                        <mxPoint x="570" y="240" as="targetPoint"/>
                    </mxGeometry>
                </mxCell>
                <mxCell id="107" value="" style="endArrow=none;dashed=1;html=1;fontSize=12;entryX=0.5;entryY=1;entryDx=0;entryDy=0;startArrow=none;" parent="1" source="180" target="104" edge="1">
                    <mxGeometry width="50" height="50" relative="1" as="geometry">
                        <mxPoint x="480" y="1920" as="sourcePoint"/>
                        <mxPoint x="560" y="181" as="targetPoint"/>
                    </mxGeometry>
                </mxCell>
                <mxCell id="147" value="" style="endArrow=none;dashed=1;html=1;dashPattern=1 3;strokeWidth=2;fontSize=14;fontColor=#F7FF19;exitX=1;exitY=0.5;exitDx=0;exitDy=0;entryX=0;entryY=1;entryDx=0;entryDy=0;entryPerimeter=0;" parent="1" source="180" target="196" edge="1">
                    <mxGeometry width="50" height="50" relative="1" as="geometry">
                        <mxPoint x="900" y="260" as="sourcePoint"/>
                        <mxPoint x="980" y="60" as="targetPoint"/>
                    </mxGeometry>
                </mxCell>
                <mxCell id="170" value="" style="endArrow=none;dashed=1;html=1;fontSize=12;entryX=0.5;entryY=1;entryDx=0;entryDy=0;" parent="1" target="169" edge="1">
                    <mxGeometry width="50" height="50" relative="1" as="geometry">
                        <mxPoint x="120" y="1850" as="sourcePoint"/>
                        <mxPoint x="120" y="41" as="targetPoint"/>
                    </mxGeometry>
                </mxCell>
                <mxCell id="169" value="&lt;b&gt;Change IP&lt;br&gt;from: 16.1.0.2&lt;br&gt;to: 16.1.0.5&lt;br&gt;&lt;/b&gt;" style="rounded=1;whiteSpace=wrap;html=1;" parent="1" vertex="1">
                    <mxGeometry x="60" y="-40" width="120" height="70" as="geometry"/>
                </mxCell>
                <mxCell id="171" value="" style="endArrow=classic;html=1;fontSize=18;" parent="1" edge="1">
                    <mxGeometry x="-160" y="-230" width="50" height="50" as="geometry">
                        <mxPoint x="120" y="70" as="sourcePoint"/>
                        <mxPoint x="480" y="70" as="targetPoint"/>
                    </mxGeometry>
                </mxCell>
                <mxCell id="172" value="PING" style="edgeLabel;html=1;align=center;verticalAlign=middle;resizable=0;points=[];fontSize=14;" parent="171" vertex="1" connectable="0">
                    <mxGeometry relative="1" as="geometry">
                        <mxPoint x="-140" y="-10" as="offset"/>
                    </mxGeometry>
                </mxCell>
                <mxCell id="173" value="" style="endArrow=classic;html=1;fontSize=18;" parent="1" edge="1">
                    <mxGeometry x="-150" y="-220" width="50" height="50" as="geometry">
                        <mxPoint x="480" y="190" as="sourcePoint"/>
                        <mxPoint x="120" y="190" as="targetPoint"/>
                    </mxGeometry>
                </mxCell>
                <mxCell id="174" value="WHOAREYOU" style="edgeLabel;html=1;align=center;verticalAlign=middle;resizable=0;points=[];fontSize=14;" parent="173" vertex="1" connectable="0">
                    <mxGeometry relative="1" as="geometry">
                        <mxPoint x="120" y="-10" as="offset"/>
                    </mxGeometry>
                </mxCell>
                <mxCell id="175" value="Received a message without session" style="rounded=1;whiteSpace=wrap;html=1;" parent="1" vertex="1">
                    <mxGeometry x="360" y="110" width="220" height="40" as="geometry"/>
                </mxCell>
                <mxCell id="176" value="" style="endArrow=classic;html=1;fontSize=18;" parent="1" edge="1">
                    <mxGeometry x="-160" y="-70" width="50" height="50" as="geometry">
                        <mxPoint x="120" y="230" as="sourcePoint"/>
                        <mxPoint x="480" y="230" as="targetPoint"/>
                    </mxGeometry>
                </mxCell>
                <mxCell id="177" value="Auth message" style="edgeLabel;html=1;align=center;verticalAlign=middle;resizable=0;points=[];fontSize=14;" parent="176" vertex="1" connectable="0">
                    <mxGeometry relative="1" as="geometry">
                        <mxPoint x="-120" y="-10" as="offset"/>
                    </mxGeometry>
                </mxCell>
                <mxCell id="178" value="Session has invalid ENR&lt;br&gt;&lt;br&gt;enr.upp4_socket: 16.1.0.2&lt;br&gt;src: 16.1.0.5" style="rounded=1;whiteSpace=wrap;html=1;" parent="1" vertex="1">
                    <mxGeometry x="370" y="250" width="220" height="70" as="geometry"/>
                </mxCell>
                <mxCell id="181" value="" style="endArrow=none;dashed=1;html=1;fontSize=12;entryX=0.5;entryY=1;entryDx=0;entryDy=0;" parent="1" target="180" edge="1">
                    <mxGeometry width="50" height="50" relative="1" as="geometry">
                        <mxPoint x="480" y="1920" as="sourcePoint"/>
                        <mxPoint x="480" y="41" as="targetPoint"/>
                    </mxGeometry>
                </mxCell>
                <mxCell id="180" value="Handle PING" style="rounded=1;whiteSpace=wrap;html=1;" parent="1" vertex="1">
                    <mxGeometry x="405" y="350" width="150" height="40" as="geometry"/>
                </mxCell>
                <mxCell id="182" value="" style="endArrow=classic;html=1;fontSize=18;" parent="1" edge="1">
                    <mxGeometry x="-150" y="20" width="50" height="50" as="geometry">
                        <mxPoint x="480" y="430" as="sourcePoint"/>
                        <mxPoint x="120" y="430" as="targetPoint"/>
                    </mxGeometry>
                </mxCell>
                <mxCell id="183" value="PONG" style="edgeLabel;html=1;align=center;verticalAlign=middle;resizable=0;points=[];fontSize=14;" parent="182" vertex="1" connectable="0">
                    <mxGeometry relative="1" as="geometry">
                        <mxPoint x="120" y="-10" as="offset"/>
                    </mxGeometry>
                </mxCell>
                <mxCell id="184" value="&lt;b&gt;Update ENR&lt;br&gt;udp4_socket: 16.1.0.2 -&amp;gt; 16.1.0.5&lt;br&gt;seq: 1 -&amp;gt; 2&lt;br&gt;&lt;/b&gt;" style="rounded=1;whiteSpace=wrap;html=1;" parent="1" vertex="1">
                    <mxGeometry x="-20" y="470" width="250" height="70" as="geometry"/>
                </mxCell>
                <mxCell id="185" value="" style="endArrow=classic;html=1;fontSize=18;" parent="1" edge="1">
                    <mxGeometry x="-160" y="288" width="50" height="50" as="geometry">
                        <mxPoint x="120" y="588" as="sourcePoint"/>
                        <mxPoint x="480" y="588" as="targetPoint"/>
                    </mxGeometry>
                </mxCell>
                <mxCell id="186" value="PING&amp;nbsp; (seq: 2)" style="edgeLabel;html=1;align=center;verticalAlign=middle;resizable=0;points=[];fontSize=14;" parent="185" vertex="1" connectable="0">
                    <mxGeometry relative="1" as="geometry">
                        <mxPoint x="-120" y="-10" as="offset"/>
                    </mxGeometry>
                </mxCell>
                <mxCell id="194" value="Session eslablished with Node A" style="rounded=1;whiteSpace=wrap;html=1;" parent="1" vertex="1">
                    <mxGeometry x="375" y="-160" width="220" height="40" as="geometry"/>
                </mxCell>
                <mxCell id="195" value="Session eslablished with Node B" style="rounded=1;whiteSpace=wrap;html=1;" parent="1" vertex="1">
                    <mxGeometry x="10" y="-160" width="220" height="40" as="geometry"/>
                </mxCell>
                <mxCell id="196" value="Respond to the PING request using &lt;b&gt;one-time session&lt;/b&gt;." style="shape=note;whiteSpace=wrap;html=1;backgroundOutline=1;darkOpacity=0.05;" parent="1" vertex="1">
                    <mxGeometry x="633" y="194" width="350" height="100" as="geometry"/>
                </mxCell>
                <mxCell id="199" value="PING to notify the connected peers that the ENR has been updated." style="shape=note;whiteSpace=wrap;html=1;backgroundOutline=1;darkOpacity=0.05;" parent="1" vertex="1">
                    <mxGeometry x="-130" y="560" width="230" height="100" as="geometry"/>
                </mxCell>
                <mxCell id="201" value="No available session with Node A&lt;br&gt;so send WHOAREYOU again." style="shape=note;whiteSpace=wrap;html=1;backgroundOutline=1;darkOpacity=0.05;" parent="1" vertex="1">
                    <mxGeometry x="606.14" y="594" width="321" height="79" as="geometry"/>
                </mxCell>
                <mxCell id="202" value="From the PONG response, Node A noticed that its IP had changed." style="shape=note;whiteSpace=wrap;html=1;backgroundOutline=1;darkOpacity=0.05;" parent="1" vertex="1">
                    <mxGeometry x="-142" y="355" width="242" height="102" as="geometry"/>
                </mxCell>
                <mxCell id="203" value="Received a message without session" style="rounded=1;whiteSpace=wrap;html=1;" vertex="1" parent="1">
                    <mxGeometry x="370" y="620" width="220" height="40" as="geometry"/>
                </mxCell>
                <mxCell id="204" value="" style="endArrow=classic;html=1;fontSize=18;" edge="1" parent="1">
                    <mxGeometry x="-151" y="300.5" width="50" height="50" as="geometry">
                        <mxPoint x="479" y="710.5" as="sourcePoint"/>
                        <mxPoint x="119" y="710.5" as="targetPoint"/>
                    </mxGeometry>
                </mxCell>
                <mxCell id="205" value="WHOAREYOU" style="edgeLabel;html=1;align=center;verticalAlign=middle;resizable=0;points=[];fontSize=14;" vertex="1" connectable="0" parent="204">
                    <mxGeometry relative="1" as="geometry">
                        <mxPoint x="120" y="-10" as="offset"/>
                    </mxGeometry>
                </mxCell>
                <mxCell id="206" value="" style="endArrow=classic;html=1;fontSize=18;" edge="1" parent="1">
                    <mxGeometry x="-161" y="450.5" width="50" height="50" as="geometry">
                        <mxPoint x="119" y="750.5" as="sourcePoint"/>
                        <mxPoint x="479" y="750.5" as="targetPoint"/>
                    </mxGeometry>
                </mxCell>
                <mxCell id="207" value="Auth message" style="edgeLabel;html=1;align=center;verticalAlign=middle;resizable=0;points=[];fontSize=14;" vertex="1" connectable="0" parent="206">
                    <mxGeometry relative="1" as="geometry">
                        <mxPoint x="-120" y="-10" as="offset"/>
                    </mxGeometry>
                </mxCell>
                <mxCell id="208" value="&lt;b style=&quot;&quot;&gt;&lt;font color=&quot;#00cc00&quot;&gt;Session established&lt;/font&gt;&lt;/b&gt;&lt;br&gt;and the ENR in the routing table has been updated." style="rounded=1;whiteSpace=wrap;html=1;" vertex="1" parent="1">
                    <mxGeometry x="370" y="782" width="297" height="70" as="geometry"/>
                </mxCell>
                <mxCell id="209" value="" style="endArrow=classic;html=1;fontSize=18;" edge="1" parent="1">
                    <mxGeometry x="-149" y="486" width="50" height="50" as="geometry">
                        <mxPoint x="481" y="896" as="sourcePoint"/>
                        <mxPoint x="121" y="896" as="targetPoint"/>
                    </mxGeometry>
                </mxCell>
                <mxCell id="210" value="PONG" style="edgeLabel;html=1;align=center;verticalAlign=middle;resizable=0;points=[];fontSize=14;" vertex="1" connectable="0" parent="209">
                    <mxGeometry relative="1" as="geometry">
                        <mxPoint x="120" y="-10" as="offset"/>
                    </mxGeometry>
                </mxCell>
            </root>
        </mxGraphModel>
    </diagram>
</mxfile>